<svg width="959" height="1279" xmlns="http://www.w3.org/2000/svg" xmlns:xlink="http://www.w3.org/1999/xlink" overflow="hidden"><defs><clipPath id="clip0"><rect x="0" y="0" width="959" height="1279"/></clipPath></defs><g clip-path="url(#clip0)"><rect x="0" y="0" width="959" height="1279.33" fill="#FFFFFF"/><path d="M0.333333-4.94803e-07 0.333428 64.0596-0.333238 64.0596-0.333333 4.94803e-07ZM4.00009 62.7263 0.000104987 70.7263-3.99991 62.7263Z" transform="matrix(1 0 0 -1.00026 142.5 513.36)"/><rect x="62.5001" y="324.585" width="161" height="118.031" stroke="#2F528F" stroke-width="1.33333" stroke-miterlimit="8" fill="#4472C4"/><text fill="#FFFFFF" font-family="Calibri,Calibri_MSFontService,sans-serif" font-weight="300" font-size="17" transform="matrix(1 0 0 1.00026 78.1606 379)">Citation Resolution <tspan font-size="17" x="44.1867" y="19.9948">Portal</tspan></text><rect x="62.5001" y="136.536" width="161" height="118.031" stroke="#2F528F" stroke-width="1.33333" stroke-miterlimit="8" fill="#4472C4"/><text fill="#FFFFFF" font-family="Calibri,Calibri_MSFontService,sans-serif" font-weight="300" font-size="17" transform="matrix(1 0 0 1.00026 96.8473 201)">Course Portal</text><rect x="62.5001" y="503.631" width="161" height="118.031" stroke="#2F528F" stroke-width="1.33333" stroke-miterlimit="8" fill="#4472C4"/><text fill="#FFFFFF" font-family="Calibri,Calibri_MSFontService,sans-serif" font-weight="300" font-size="17" transform="matrix(1 0 0 1.00026 77.6839 558)">General Navigation <tspan font-size="17" x="44.6667" y="19.9948">Portal</tspan></text><path d="M294.226 193.884 230.167 193.884 230.167 193.217 294.226 193.217ZM231.5 197.552 223.5 193.551 231.5 189.55Z"/><path d="M0.333333-4.94803e-07 0.333428 64.0596-0.333238 64.0596-0.333333 4.94803e-07ZM4.00009 62.7263 0.000104987 70.7263-3.99991 62.7263Z" transform="matrix(6.12323e-17 1.00026 1 -6.12483e-17 223.5 563.647)"/><rect x="293.5" y="504.632" width="161" height="117.03" stroke="#2F528F" stroke-width="1.33333" stroke-miterlimit="8" fill="#4472C4"/><text fill="#FFFFFF" font-family="Calibri,Calibri_MSFontService,sans-serif" font-weight="300" font-size="17" transform="matrix(1 0 0 1.00026 323.396 548)">Authentication <tspan font-size="17" x="-2.10666" y="19.9948">Portal and User </tspan><tspan font-size="17" x="24.1067" y="40.9893">Routing</tspan></text><rect x="526.5" y="315.582" width="161" height="118.031" stroke="#2F528F" stroke-width="1.33333" stroke-miterlimit="8" fill="#4472C4"/><text fill="#FFFFFF" font-family="Calibri,Calibri_MSFontService,sans-serif" font-weight="300" font-size="17" transform="matrix(1 0 0 1.00026 539.286 380)">Citation Issue Portal</text><path d="M0.333333-4.94803e-07 0.333428 64.0596-0.333238 64.0596-0.333333 4.94803e-07ZM4.00009 62.7263 0.000104987 70.7263-3.99991 62.7263Z" transform="matrix(6.12323e-17 1.00026 1 -6.12483e-17 455.5 561.646)"/><path d="M0.333333-1.39961e-07 0.333436 243.373-0.333231 243.373-0.333333 1.39961e-07ZM4.0001 242.039 0.000104987 250.039-3.9999 242.039Z" transform="matrix(1 0 0 -1.00026 374.5 504.671)"/><path d="M0.333333-4.94803e-07 0.333428 64.0596-0.333238 64.0596-0.333333 4.94803e-07ZM4.00009 62.7263 0.000104987 70.7263-3.99991 62.7263Z" transform="matrix(1 0 0 -1.00026 141.5 325.311)"/><rect x="293.5" y="136.536" width="161" height="118.031" stroke="#2F528F" stroke-width="1.33333" stroke-miterlimit="8" fill="#4472C4"/><text fill="#FFFFFF" font-family="Calibri,Calibri_MSFontService,sans-serif" font-weight="300" font-size="17" transform="matrix(1 0 0 1.00026 350.063 191)">Course <tspan font-size="17" x="-43.96" y="19.9948">Management Portal</tspan></text><rect x="527.5" y="869.727" width="161" height="117.031" stroke="#2F528F" stroke-width="1.33333" stroke-miterlimit="8" fill="#4472C4"/><text fill="#FFFFFF" font-family="Calibri,Calibri_MSFontService,sans-serif" font-weight="300" font-size="17" transform="matrix(1 0 0 1.00026 560.449 934)">Lookup Portal</text><rect x="526.5" y="504.632" width="161" height="117.03" stroke="#2F528F" stroke-width="1.33333" stroke-miterlimit="8" fill="#4472C4"/><text fill="#FFFFFF" font-family="Calibri,Calibri_MSFontService,sans-serif" font-weight="300" font-size="17" transform="matrix(1 0 0 1.00026 543.053 558)">Citation and Traffic <tspan font-size="17" x="-3.99335" y="19.9948">Management Portal</tspan></text><path d="M0.333333-4.94803e-07 0.333428 64.0596-0.333238 64.0596-0.333333 4.94803e-07ZM4.00009 62.7263 0.000104987 70.7263-3.99991 62.7263Z" transform="matrix(1 0 0 -1.00026 607.5 504.358)"/><rect x="759.5" y="502.631" width="161" height="118.031" stroke="#2F528F" stroke-width="1.33333" stroke-miterlimit="8" fill="#4472C4"/><text fill="#FFFFFF" font-family="Calibri,Calibri_MSFontService,sans-serif" font-weight="300" font-size="17" transform="matrix(1 0 0 1.00026 806.037 557)">Employee <tspan font-size="17" x="-34.02" y="19.9948">Management Portal</tspan></text><path d="M0.333333-4.94803e-07 0.333428 64.0596-0.333238 64.0596-0.333333 4.94803e-07ZM4.00009 62.7263 0.000104987 70.7263-3.99991 62.7263Z" transform="matrix(6.12323e-17 1.00026 1 -6.12483e-17 687.5 561.646)"/><rect x="293.5" y="692.681" width="161" height="118.031" stroke="#2F528F" stroke-width="1.33333" stroke-miterlimit="8" fill="#4472C4"/><text fill="#FFFFFF" font-family="Calibri,Calibri_MSFontService,sans-serif" font-weight="300" font-size="17" transform="matrix(1 0 0 1.00026 303.876 747)">Admin Management <tspan font-size="17" x="49.8333" y="19.9948">Portal</tspan></text><path d="M374.833 621.662 374.833 685.738 374.167 685.738 374.167 621.662ZM378.5 684.405 374.5 692.407 370.5 684.405Z"/><rect x="65.5001" y="225.559" width="30" height="11.0029" stroke="#000000" stroke-width="1.33333" stroke-miterlimit="8" fill="#FFD966"/><text font-family="Calibri,Calibri_MSFontService,sans-serif" font-weight="400" font-size="4" transform="matrix(1 0 0 1.00026 79.1684 232)">C</text><rect x="65.5001" y="239.562" width="30" height="11.0029" stroke="#000000" stroke-width="1.33333" stroke-miterlimit="8" fill="#4472C4"/><text fill="#FFFFFF" font-family="Calibri,Calibri_MSFontService,sans-serif" font-weight="400" font-size="4" transform="matrix(1 0 0 1.00026 78.2518 246)">SR</text><rect x="296.5" y="240.563" width="30" height="10.0026" stroke="#000000" stroke-width="1.33333" stroke-miterlimit="8" fill="#4472C4"/><text fill="#FFFFFF" font-family="Calibri,Calibri_MSFontService,sans-serif" font-weight="400" font-size="4" transform="matrix(1 0 0 1.00026 309.311 247)">SR</text><rect x="293.5" y="869.727" width="161" height="117.031" stroke="#2F528F" stroke-width="1.33333" stroke-miterlimit="8" fill="#4472C4"/><text fill="#FFFFFF" font-family="Calibri,Calibri_MSFontService,sans-serif" font-weight="300" font-size="17" transform="matrix(1 0 0 1.00026 323.723 934)">Citizen Lookup</text><rect x="759.5" y="869.727" width="161" height="117.031" stroke="#2F528F" stroke-width="1.33333" stroke-miterlimit="8" fill="#4472C4"/><text fill="#FFFFFF" font-family="Calibri,Calibri_MSFontService,sans-serif" font-weight="300" font-size="17" transform="matrix(1 0 0 1.00026 786.37 934)">Citation Lookup</text><path d="M610.833 986.757 610.833 1050.83 610.167 1050.83 610.167 986.757ZM614.5 1049.5 610.5 1057.5 606.5 1049.5Z"/><path d="M0.333333-4.94803e-07 0.333428 64.0596-0.333238 64.0596-0.333333 4.94803e-07ZM4.00009 62.7263 0.000104987 70.7263-3.99991 62.7263Z" transform="matrix(6.12323e-17 1.00026 1 -6.12483e-17 689.5 928.742)"/><rect x="529.5" y="1057.78" width="161" height="118.031" stroke="#2F528F" stroke-width="1.33333" stroke-miterlimit="8" fill="#4472C4"/><text fill="#FFFFFF" font-family="Calibri,Calibri_MSFontService,sans-serif" font-weight="300" font-size="17" transform="matrix(1 0 0 1.00026 558.733 1122)">Vehicle Lookup</text><path d="M607.833 620.662 607.833 864.098 607.167 864.098 607.167 620.662ZM611.5 862.764 607.5 870.766 603.5 862.764Z"/><path d="M526.226 929.076 462.167 929.076 462.167 928.409 526.226 928.409ZM463.5 932.743 455.5 928.742 463.5 924.741Z"/><rect x="563.5" y="418.609" width="30" height="10.0026" stroke="#000000" stroke-width="1.33333" stroke-miterlimit="8" fill="#00B050"/><text fill="#FFFFFF" font-family="Calibri,Calibri_MSFontService,sans-serif" font-weight="400" font-size="4" transform="matrix(1 0 0 1.00026 574.05 425)">HPO</text><rect x="529.5" y="418.609" width="30" height="10.0026" stroke="#000000" stroke-width="1.33333" stroke-miterlimit="8" fill="#7030A0"/><text fill="#FFFFFF" font-family="Calibri,Calibri_MSFontService,sans-serif" font-weight="400" font-size="4" transform="matrix(1 0 0 1.00026 539.634 425)">MOM</text><rect x="65.5001" y="592.654" width="30" height="11.0029" stroke="#000000" stroke-width="1.33333" stroke-miterlimit="8" fill="#FF0000"/><text fill="#FFFFFF" font-family="Calibri,Calibri_MSFontService,sans-serif" font-weight="400" font-size="4" transform="matrix(1 0 0 1.00026 78.1684 599)">SA</text><rect x="101.5" y="592.654" width="30" height="11.0029" stroke="#000000" stroke-width="1.33333" stroke-miterlimit="8" fill="#ED7D31"/><text fill="#FFFFFF" font-family="Calibri,Calibri_MSFontService,sans-serif" font-weight="400" font-size="4" transform="matrix(1 0 0 1.00026 111.615 599)">HPM</text><rect x="173.5" y="606.658" width="30" height="11.0029" stroke="#000000" stroke-width="1.33333" stroke-miterlimit="8" fill="#00B050"/><text fill="#FFFFFF" font-family="Calibri,Calibri_MSFontService,sans-serif" font-weight="400" font-size="4" transform="matrix(1 0 0 1.00026 184.356 613)">HPO</text><rect x="137.5" y="606.658" width="30" height="11.0029" stroke="#000000" stroke-width="1.33333" stroke-miterlimit="8" fill="#7030A0"/><text fill="#FFFFFF" font-family="Calibri,Calibri_MSFontService,sans-serif" font-weight="400" font-size="4" transform="matrix(1 0 0 1.00026 146.944 613)">MOM</text><rect x="101.5" y="606.658" width="30" height="11.0029" stroke="#000000" stroke-width="1.33333" stroke-miterlimit="8" fill="#FFD966"/><text font-family="Calibri,Calibri_MSFontService,sans-serif" font-weight="400" font-size="4" transform="matrix(1 0 0 1.00026 114.531 614)">C</text><rect x="65.5001" y="606.658" width="30" height="11.0029" stroke="#000000" stroke-width="1.33333" stroke-miterlimit="8" fill="#4472C4"/><text fill="#FFFFFF" font-family="Calibri,Calibri_MSFontService,sans-serif" font-weight="400" font-size="4" transform="matrix(1 0 0 1.00026 78.2518 614)">SR</text><rect x="65.5001" y="428.612" width="30" height="11.0029" stroke="#000000" stroke-width="1.33333" stroke-miterlimit="8" fill="#FFD966"/><text font-family="Calibri,Calibri_MSFontService,sans-serif" font-weight="400" font-size="4" transform="matrix(1 0 0 1.00026 79.1684 436)">C</text><rect x="297.5" y="796.708" width="30" height="11.0029" stroke="#000000" stroke-width="1.33333" stroke-miterlimit="8" fill="#FF0000"/><text fill="#FFFFFF" font-family="Calibri,Calibri_MSFontService,sans-serif" font-weight="400" font-size="4" transform="matrix(1 0 0 1.00026 309.469 803)">SA</text><rect x="332.5" y="606.658" width="30" height="11.0029" stroke="#000000" stroke-width="1.33333" stroke-miterlimit="8" fill="#ED7D31"/><text fill="#FFFFFF" font-family="Calibri,Calibri_MSFontService,sans-serif" font-weight="400" font-size="4" transform="matrix(1 0 0 1.00026 342.849 613)">HPM</text><rect x="404.5" y="606.658" width="30" height="11.0029" stroke="#000000" stroke-width="1.33333" stroke-miterlimit="8" fill="#00B050"/><text fill="#FFFFFF" font-family="Calibri,Calibri_MSFontService,sans-serif" font-weight="400" font-size="4" transform="matrix(1 0 0 1.00026 415.59 613)">HPO</text><rect x="368.5" y="606.658" width="30" height="11.0029" stroke="#000000" stroke-width="1.33333" stroke-miterlimit="8" fill="#7030A0"/><text fill="#FFFFFF" font-family="Calibri,Calibri_MSFontService,sans-serif" font-weight="400" font-size="4" transform="matrix(1 0 0 1.00026 378.177 613)">MOM</text><rect x="297.5" y="606.658" width="29" height="11.0029" stroke="#000000" stroke-width="1.33333" stroke-miterlimit="8" fill="#4472C4"/><text fill="#FFFFFF" font-family="Calibri,Calibri_MSFontService,sans-serif" font-weight="400" font-size="4" transform="matrix(1 0 0 1.00026 309.486 614)">SR</text><rect x="296.5" y="592.654" width="30" height="11.0029" stroke="#000000" stroke-width="1.33333" stroke-miterlimit="8" fill="#FF0000"/><text fill="#FFFFFF" font-family="Calibri,Calibri_MSFontService,sans-serif" font-weight="400" font-size="4" transform="matrix(1 0 0 1.00026 309.377 599)">SA</text><rect x="563.5" y="606.658" width="30" height="11.0029" stroke="#000000" stroke-width="1.33333" stroke-miterlimit="8" fill="#00B050"/><text fill="#FFFFFF" font-family="Calibri,Calibri_MSFontService,sans-serif" font-weight="400" font-size="4" transform="matrix(1 0 0 1.00026 574.05 613)">HPO</text><rect x="529.5" y="606.658" width="30" height="11.0029" stroke="#000000" stroke-width="1.33333" stroke-miterlimit="8" fill="#7030A0"/><text fill="#FFFFFF" font-family="Calibri,Calibri_MSFontService,sans-serif" font-weight="400" font-size="4" transform="matrix(1 0 0 1.00026 539.634 613)">MOM</text><rect x="24.5001" y="974.754" width="241" height="231.06" stroke="#000000" stroke-width="1.33333" stroke-miterlimit="8" fill="#FFFFFF"/><text font-family="Calibri,Calibri_MSFontService,sans-serif" font-weight="400" font-size="15" transform="matrix(1 0 0 1.00026 73.9927 1016)">System Administrators<tspan font-size="15" x="0" y="25.9932">Highway Patrol Managers</tspan><tspan font-size="15" x="0" y="52.9862">Highway Patrol Officers</tspan><tspan font-size="15" x="0" y="78.9794">Municipal Officer Managers</tspan><tspan font-size="15" x="0" y="104.973">Citizens</tspan><tspan font-size="15" x="0" y="131.966">School Representatives </tspan><tspan font-size="15" x="0" y="157.959">Municipal Officers</tspan></text><rect x="36.5001" y="1004.76" width="28" height="14.0037" stroke="#000000" stroke-width="1.33333" stroke-miterlimit="8" fill="#FF0000"/><text fill="#FFFFFF" font-family="Calibri,Calibri_MSFontService,sans-serif" font-weight="400" font-size="4" transform="matrix(1 0 0 1.00026 48.0291 1013)">SA</text><rect x="36.5001" y="1030.77" width="28" height="15.0039" stroke="#000000" stroke-width="1.33333" stroke-miterlimit="8" fill="#ED7D31"/><text fill="#FFFFFF" font-family="Calibri,Calibri_MSFontService,sans-serif" font-weight="400" font-size="4" transform="matrix(1 0 0 1.00026 46.1124 1039)">HPM</text><rect x="36.5001" y="1057.78" width="28" height="15.0039" stroke="#000000" stroke-width="1.33333" stroke-miterlimit="8" fill="#00B050"/><text fill="#FFFFFF" font-family="Calibri,Calibri_MSFontService,sans-serif" font-weight="400" font-size="4" transform="matrix(1 0 0 1.00026 46.5291 1067)">HPO</text><rect x="36.5001" y="1084.78" width="29" height="14.0037" stroke="#000000" stroke-width="1.33333" stroke-miterlimit="8" fill="#7030A0"/><text fill="#FFFFFF" font-family="Calibri,Calibri_MSFontService,sans-serif" font-weight="400" font-size="4" transform="matrix(1 0 0 1.00026 45.9575 1093)">MOM</text><rect x="36.5001" y="1110.79" width="28" height="15.0039" stroke="#000000" stroke-width="1.33333" stroke-miterlimit="8" fill="#FFD966"/><text font-family="Calibri,Calibri_MSFontService,sans-serif" font-weight="400" font-size="4" transform="matrix(1 0 0 1.00026 49.029 1119)">C</text><rect x="36.5001" y="1137.8" width="28" height="14.0037" stroke="#000000" stroke-width="1.33333" stroke-miterlimit="8" fill="#4472C4"/><text fill="#FFFFFF" font-family="Calibri,Calibri_MSFontService,sans-serif" font-weight="400" font-size="4" transform="matrix(1 0 0 1.00026 48.1123 1146)">SR</text><rect x="36.5001" y="1162.8" width="28" height="14.0037" stroke="#000000" stroke-width="1.33333" stroke-miterlimit="8" fill="#EA1EDB"/><text fill="#FFFFFF" font-family="Calibri,Calibri_MSFontService,sans-serif" font-weight="400" font-size="4" transform="matrix(1 0 0 1.00026 47.029 1171)">MO</text><rect x="137.5" y="591.654" width="30" height="11.0029" stroke="#000000" stroke-width="1.33333" stroke-miterlimit="8" fill="#EA1EDB"/><text fill="#FFFFFF" font-family="Calibri,Calibri_MSFontService,sans-serif" font-weight="400" font-size="4" transform="matrix(1 0 0 1.00026 148.694 599)">MO</text><rect x="332.5" y="592.654" width="30" height="11.0029" stroke="#000000" stroke-width="1.33333" stroke-miterlimit="8" fill="#EA1EDB"/><text fill="#FFFFFF" font-family="Calibri,Calibri_MSFontService,sans-serif" font-weight="400" font-size="4" transform="matrix(1 0 0 1.00026 343.74 599)">MO</text><rect x="596.5" y="606.658" width="30" height="11.0029" stroke="#000000" stroke-width="1.33333" stroke-miterlimit="8" fill="#EA1EDB"/><text fill="#FFFFFF" font-family="Calibri,Calibri_MSFontService,sans-serif" font-weight="400" font-size="4" transform="matrix(1 0 0 1.00026 607.79 613)">MO</text><rect x="596.5" y="418.609" width="30" height="10.0026" stroke="#000000" stroke-width="1.33333" stroke-miterlimit="8" fill="#EA1EDB"/><text fill="#FFFFFF" font-family="Calibri,Calibri_MSFontService,sans-serif" font-weight="400" font-size="4" transform="matrix(1 0 0 1.00026 607.79 425)">MO</text><rect x="629.5" y="418.609" width="30" height="10.0026" stroke="#000000" stroke-width="1.33333" stroke-miterlimit="8" fill="#ED7D31"/><text fill="#FFFFFF" font-family="Calibri,Calibri_MSFontService,sans-serif" font-weight="400" font-size="4" transform="matrix(1 0 0 1.00026 640.039 425)">HPM</text><rect x="762.5" y="606.658" width="30" height="11.0029" stroke="#000000" stroke-width="1.33333" stroke-miterlimit="8" fill="#7030A0"/><text fill="#FFFFFF" font-family="Calibri,Calibri_MSFontService,sans-serif" font-weight="400" font-size="4" transform="matrix(1 0 0 1.00026 772.541 613)">MOM</text><rect x="796.5" y="606.658" width="29" height="11.0029" stroke="#000000" stroke-width="1.33333" stroke-miterlimit="8" fill="#ED7D31"/><text fill="#FFFFFF" font-family="Calibri,Calibri_MSFontService,sans-serif" font-weight="400" font-size="4" transform="matrix(1 0 0 1.00026 806.49 613)">HPM</text><rect x="629.5" y="606.658" width="30" height="11.0029" stroke="#000000" stroke-width="1.33333" stroke-miterlimit="8" fill="#ED7D31"/><text fill="#FFFFFF" font-family="Calibri,Calibri_MSFontService,sans-serif" font-weight="400" font-size="4" transform="matrix(1 0 0 1.00026 640.039 613)">HPM</text><rect x="564.5" y="973.754" width="30" height="11.0029" stroke="#000000" stroke-width="1.33333" stroke-miterlimit="8" fill="#00B050"/><text fill="#FFFFFF" font-family="Calibri,Calibri_MSFontService,sans-serif" font-weight="400" font-size="4" transform="matrix(1 0 0 1.00026 574.937 981)">HPO</text><rect x="530.5" y="973.754" width="30" height="11.0029" stroke="#000000" stroke-width="1.33333" stroke-miterlimit="8" fill="#7030A0"/><text fill="#FFFFFF" font-family="Calibri,Calibri_MSFontService,sans-serif" font-weight="400" font-size="4" transform="matrix(1 0 0 1.00026 540.521 981)">MOM</text><rect x="596.5" y="973.754" width="30" height="11.0029" stroke="#000000" stroke-width="1.33333" stroke-miterlimit="8" fill="#ED7D31"/><text fill="#FFFFFF" font-family="Calibri,Calibri_MSFontService,sans-serif" font-weight="400" font-size="4" transform="matrix(1 0 0 1.00026 607.473 981)">HPM</text><rect x="330.5" y="973.754" width="30" height="11.0029" stroke="#000000" stroke-width="1.33333" stroke-miterlimit="8" fill="#00B050"/><text fill="#FFFFFF" font-family="Calibri,Calibri_MSFontService,sans-serif" font-weight="400" font-size="4" transform="matrix(1 0 0 1.00026 341.042 981)">HPO</text><rect x="296.5" y="973.754" width="30" height="11.0029" stroke="#000000" stroke-width="1.33333" stroke-miterlimit="8" fill="#7030A0"/><text fill="#FFFFFF" font-family="Calibri,Calibri_MSFontService,sans-serif" font-weight="400" font-size="4" transform="matrix(1 0 0 1.00026 306.627 981)">MOM</text><rect x="363.5" y="973.754" width="30" height="11.0029" stroke="#000000" stroke-width="1.33333" stroke-miterlimit="8" fill="#ED7D31"/><text fill="#FFFFFF" font-family="Calibri,Calibri_MSFontService,sans-serif" font-weight="400" font-size="4" transform="matrix(1 0 0 1.00026 373.578 981)">HPM</text><rect x="566.5" y="1161.8" width="30" height="11.0028" stroke="#000000" stroke-width="1.33333" stroke-miterlimit="8" fill="#00B050"/><text fill="#FFFFFF" font-family="Calibri,Calibri_MSFontService,sans-serif" font-weight="400" font-size="4" transform="matrix(1 0 0 1.00026 577.534 1169)">HPO</text><rect x="533.5" y="1161.8" width="30" height="11.0028" stroke="#000000" stroke-width="1.33333" stroke-miterlimit="8" fill="#7030A0"/><text fill="#FFFFFF" font-family="Calibri,Calibri_MSFontService,sans-serif" font-weight="400" font-size="4" transform="matrix(1 0 0 1.00026 543.119 1169)">MOM</text><rect x="599.5" y="1161.8" width="30" height="11.0028" stroke="#000000" stroke-width="1.33333" stroke-miterlimit="8" fill="#ED7D31"/><text fill="#FFFFFF" font-family="Calibri,Calibri_MSFontService,sans-serif" font-weight="400" font-size="4" transform="matrix(1 0 0 1.00026 610.07 1169)">HPM</text><rect x="796.5" y="973.754" width="30" height="11.0029" stroke="#000000" stroke-width="1.33333" stroke-miterlimit="8" fill="#00B050"/><text fill="#FFFFFF" font-family="Calibri,Calibri_MSFontService,sans-serif" font-weight="400" font-size="4" transform="matrix(1 0 0 1.00026 806.957 981)">HPO</text><rect x="762.5" y="973.754" width="30" height="11.0029" stroke="#000000" stroke-width="1.33333" stroke-miterlimit="8" fill="#7030A0"/><text fill="#FFFFFF" font-family="Calibri,Calibri_MSFontService,sans-serif" font-weight="400" font-size="4" transform="matrix(1 0 0 1.00026 772.541 981)">MOM</text><rect x="829.5" y="973.754" width="29" height="11.0029" stroke="#000000" stroke-width="1.33333" stroke-miterlimit="8" fill="#ED7D31"/><text fill="#FFFFFF" font-family="Calibri,Calibri_MSFontService,sans-serif" font-weight="400" font-size="4" transform="matrix(1 0 0 1.00026 839.493 981)">HPM</text><rect x="761.5" y="99.526" width="161" height="117.03" stroke="#000000" stroke-width="1.33333" stroke-miterlimit="8"/><text fill="#FFFFFF" font-family="Calibri,Calibri_MSFontService,sans-serif" font-weight="300" font-size="17" transform="matrix(1 0 0 1.00026 776.502 133)">Authentication and <tspan font-size="17" x="-0.626709" y="19.9948">Data Dissemination </tspan><tspan font-size="17" x="24.48" y="40.9893">and Storage </tspan><tspan font-size="17" x="-4.35333" y="60.9841">Management Server</tspan></text><rect x="527.5" y="99.526" width="161" height="117.03" stroke="#000000" stroke-width="1.33333" stroke-miterlimit="8"/><text fill="#FFFFFF" font-family="Calibri,Calibri_MSFontService,sans-serif" font-weight="300" font-size="17" transform="matrix(1 0 0 1.00026 550.826 163)">MySql<tspan font-size="17" x="49.6667" y="0">Database</tspan></text><path d="M752.56 158.875 695.167 158.875 695.167 158.208 752.56 158.208ZM751.226 154.54 759.226 158.541 751.226 162.542ZM696.5 162.542 688.5 158.541 696.5 154.54Z"/><path d="M26 74.0193 26.0001 973.204" stroke="#000000" stroke-width="4" stroke-miterlimit="8" fill="none" fill-rule="evenodd"/><path d="M26 74.0193 494.545 74.0194" stroke="#000000" stroke-width="4" stroke-miterlimit="8" fill="none" fill-rule="evenodd"/><path d="M934 282.074 934 1204.31" stroke="#000000" stroke-width="4" stroke-miterlimit="8" fill="none" fill-rule="evenodd"/><path d="M0 0 669 0.000104987" stroke="#000000" stroke-width="4" stroke-miterlimit="8" fill="none" fill-rule="evenodd" transform="matrix(-1 0 0 1.00026 934 1204.31)"/><path d="M0 0 0.000104987 231.049" stroke="#000000" stroke-width="4" stroke-miterlimit="8" fill="none" fill-rule="evenodd" transform="matrix(1 0 0 -1.00026 265 1204.36)"/><path d="M264.872 973.254 27 972.253" stroke="#000000" stroke-width="4" stroke-miterlimit="8" fill="none" fill-rule="evenodd"/><path d="M0 0 440.138 0.000104987" stroke="#000000" stroke-width="4" stroke-miterlimit="8" fill="none" fill-rule="evenodd" transform="matrix(-1 0 0 1.00026 935.138 282.074)"/><path d="M495 74.0193 495 282.074" stroke="#000000" stroke-width="4" stroke-miterlimit="8" fill="none" fill-rule="evenodd"/><text font-family="Calibri,Calibri_MSFontService,sans-serif" font-weight="700" font-size="24" transform="matrix(1 0 0 1.00026 280.016 1188)">Front<tspan font-size="24" x="52.9867" y="0">-</tspan><tspan font-size="24" x="60.32" y="0">End</tspan></text><rect x="510" y="74.0193" width="425" height="182.047" stroke="#000000" stroke-width="4" stroke-miterlimit="8" stroke-dasharray="16 12" fill="none"/><text font-family="Calibri,Calibri_MSFontService,sans-serif" font-weight="700" font-size="24" transform="matrix(1 0 0 1.00026 523.654 244)">Back<tspan font-size="24" x="46.8333" y="0">-</tspan><tspan font-size="24" x="54.1667" y="0">End</tspan></text><path d="M792.833 216.556 792.833 300.511 792.167 300.511 792.167 216.556ZM796.5 299.178 792.5 307.18 788.5 299.178Z"/><path d="M0.333333-3.86267e-07 0.333431 83.9329-0.333236 83.9329-0.333333 3.86267e-07ZM4.0001 82.5996 0.000104987 90.5996-3.9999 82.5996Z" transform="matrix(1 0 0 -1.00026 896.5 307.18)"/><text font-family="Calibri,Calibri_MSFontService,sans-serif" font-weight="300" font-size="17" transform="matrix(1 0 0 1.00026 797.36 236)">API endpoints</text></g></svg>